<?xml version="1.0" standalone="no"?>
<!DOCTYPE svg PUBLIC "-//W3C//DTD SVG 20010904//EN"
 "http://www.w3.org/TR/2001/REC-SVG-20010904/DTD/svg10.dtd">
<svg version="1.0" xmlns="http://www.w3.org/2000/svg"
 width="1080.000000pt" height="1080.000000pt" viewBox="0 0 1080.000000 1080.000000"
 preserveAspectRatio="xMidYMid meet">
<metadata>
Created by potrace 1.14, written by Peter Selinger 2001-2017
</metadata>
<g transform="translate(0.000000,1080.000000) scale(0.100000,-0.100000)"
fill="#000000" stroke="none">
<path d="M5150 10759 c-537 -28 -1068 -157 -1576 -384 -1046 -468 -1896 -1357
-2313 -2420 -147 -374 -234 -719 -288 -1140 -23 -178 -26 -773 -5 -960 28
-249 81 -528 138 -725 24 -83 24 -86 9 -185 -113 -772 -6 -1591 302 -2314 542
-1271 1683 -2224 3023 -2525 349 -78 562 -101 960 -101 398 0 611 23 960 101
1340 301 2481 1254 3023 2525 308 722 415 1543 302 2314 -11 74 -12 109 -5
135 59 198 125 535 152 775 21 188 17 783 -5 960 -79 621 -264 1189 -552 1696
-74 129 -263 413 -351 524 -820 1045 -1992 1657 -3304 1725 -214 11 -243 11
-470 -1z m455 -499 c99 -6 234 -17 300 -26 1397 -181 2580 -1081 3140 -2389
98 -227 200 -571 245 -822 49 -277 54 -343 54 -708 0 -371 -10 -490 -65 -766
-126 -635 -392 -1203 -803 -1719 -120 -150 -421 -454 -566 -572 -615 -499
-1319 -793 -2105 -880 -158 -17 -652 -17 -810 0 -699 77 -1347 325 -1906 728
-324 233 -648 555 -886 882 -244 334 -464 771 -577 1145 -72 236 -112 420
-148 676 -20 137 -22 198 -22 506 0 280 3 375 17 475 44 307 89 507 177 770
507 1533 1916 2612 3521 2699 210 12 236 12 434 1z m-4206 -5902 c579 -1185
1666 -2062 2943 -2372 352 -85 692 -126 1058 -126 893 0 1739 258 2482 756
651 437 1169 1031 1521 1744 l72 145 3 -135 c12 -495 -92 -1057 -285 -1540
-110 -277 -229 -504 -399 -760 -908 -1373 -2566 -2064 -4184 -1744 -946 187
-1786 698 -2397 1459 -108 135 -276 381 -355 520 -355 627 -538 1320 -538
2043 0 83 2 152 4 152 3 0 36 -64 75 -142z"/>
</g>
</svg>
